<?xml version="1.0" encoding="UTF-8" standalone="no"?>
<!-- Created with Inkscape (http://www.inkscape.org/) -->

<svg
   xmlns:dc="http://purl.org/dc/elements/1.1/"
   xmlns:cc="http://creativecommons.org/ns#"
   xmlns:rdf="http://www.w3.org/1999/02/22-rdf-syntax-ns#"
   xmlns:svg="http://www.w3.org/2000/svg"
   xmlns="http://www.w3.org/2000/svg"
   xmlns:xlink="http://www.w3.org/1999/xlink"
   xmlns:sodipodi="http://sodipodi.sourceforge.net/DTD/sodipodi-0.dtd"
   xmlns:inkscape="http://www.inkscape.org/namespaces/inkscape"
   width="297mm"
   height="210mm"
   viewBox="0 0 1052.3622 744.09448"
   id="svg2"
   version="1.1"
   inkscape:version="0.91 r13725"
   sodipodi:docname="feature.svg"
   inkscape:export-filename="/home/sven/projects/coxswain/doc/google-play/feature.png"
   inkscape:export-xdpi="106.85"
   inkscape:export-ydpi="106.85">
  <defs
     id="defs4" />
  <sodipodi:namedview
     id="base"
     pagecolor="#ffffff"
     bordercolor="#666666"
     borderopacity="1.0"
     inkscape:pageopacity="0.0"
     inkscape:pageshadow="2"
     inkscape:zoom="1.4"
     inkscape:cx="500.72896"
     inkscape:cy="334.57696"
     inkscape:document-units="px"
     inkscape:current-layer="layer1"
     showgrid="false"
     inkscape:window-width="1920"
     inkscape:window-height="1016"
     inkscape:window-x="0"
     inkscape:window-y="27"
     inkscape:window-maximized="1"
     showguides="true"
     inkscape:guide-bbox="true" />
  <metadata
     id="metadata7">
    <rdf:RDF>
      <cc:Work
         rdf:about="">
        <dc:format>image/svg+xml</dc:format>
        <dc:type
           rdf:resource="http://purl.org/dc/dcmitype/StillImage" />
        <dc:title />
      </cc:Work>
    </rdf:RDF>
  </metadata>
  <g
     inkscape:label="Ebene 1"
     inkscape:groupmode="layer"
     id="layer1"
     transform="translate(0,-308.26772)">
    <rect
       style="color:#000000;clip-rule:nonzero;display:inline;overflow:visible;visibility:visible;opacity:1;isolation:auto;mix-blend-mode:normal;color-interpolation:sRGB;color-interpolation-filters:linearRGB;solid-color:#000000;solid-opacity:1;fill:#ffffff;fill-opacity:1;fill-rule:evenodd;stroke:none;stroke-width:1.49199998;stroke-linecap:round;stroke-linejoin:round;stroke-miterlimit:4;stroke-dasharray:none;stroke-dashoffset:0;stroke-opacity:1;color-rendering:auto;image-rendering:auto;shape-rendering:auto;text-rendering:auto;enable-background:accumulate"
       id="rect4431"
       width="862.53009"
       height="421.08105"
       x="94.916054"
       y="469.77444"
       inkscape:export-filename="/home/sven/projects/coxswain/doc/google-play/feature.png"
       inkscape:export-xdpi="106.85"
       inkscape:export-ydpi="106.85" />
    <g
       id="g4477"
       style="fill:#e3e3e3;fill-opacity:1"
       inkscape:export-xdpi="100.22"
       inkscape:export-ydpi="100.22"
       transform="translate(0.13335736,0.18378575)"
       inkscape:export-filename="/home/sven/projects/coxswain/doc/google-play/feature.png">
      <path
         sodipodi:nodetypes="sssssss"
         inkscape:connector-curvature="0"
         id="rect4313"
         d="m 101.27858,678.48938 c 0,-8.11456 106.27689,-14.64721 121.52666,-14.64721 l 608.48501,0 c 15.24977,0 119.52666,6.53265 119.52666,14.64721 0,8.11456 -104.27689,14.64721 -119.52666,14.64721 l -608.48501,0 c -15.24977,0 -121.52666,-6.53265 -121.52666,-14.64721 z"
         style="color:#000000;clip-rule:nonzero;display:inline;overflow:visible;visibility:visible;opacity:1;isolation:auto;mix-blend-mode:normal;color-interpolation:sRGB;color-interpolation-filters:linearRGB;solid-color:#000000;solid-opacity:1;fill:#e3e3e3;fill-opacity:1;fill-rule:evenodd;stroke:#000000;stroke-width:1.10000002;stroke-linecap:butt;stroke-linejoin:round;stroke-miterlimit:4;stroke-dasharray:none;stroke-dashoffset:0;stroke-opacity:1;color-rendering:auto;image-rendering:auto;shape-rendering:auto;text-rendering:auto;enable-background:accumulate" />
      <path
         sodipodi:nodetypes="cccccccc"
         inkscape:connector-curvature="0"
         id="path4474"
         d="m 837.97793,691.30071 -306.19222,0 -298.19258,0 -9.28951,-12.87692 8.56805,-12.87692 298.91404,0 306.19222,0 z"
         style="color:#000000;clip-rule:nonzero;display:inline;overflow:visible;visibility:visible;opacity:1;isolation:auto;mix-blend-mode:normal;color-interpolation:sRGB;color-interpolation-filters:linearRGB;solid-color:#000000;solid-opacity:1;fill:#c2c2c2;fill-opacity:1;fill-rule:evenodd;stroke:#000000;stroke-width:0.83600003;stroke-linecap:butt;stroke-linejoin:round;stroke-miterlimit:4;stroke-dasharray:none;stroke-dashoffset:0;stroke-opacity:1;color-rendering:auto;image-rendering:auto;shape-rendering:auto;text-rendering:auto;enable-background:accumulate" />
    </g>
    <g
       inkscape:export-filename="/home/sven/projects/coxswain/doc/google-play/feature.png"
       inkscape:export-ydpi="100.22"
       inkscape:export-xdpi="100.22"
       style="fill:#000000;fill-opacity:1;stroke:#000000;stroke-width:3.28843412;stroke-miterlimit:4;stroke-dasharray:none;stroke-opacity:1"
       transform="matrix(0,-1.0923132,1.0923132,0,-67.626229,1106.6191)"
       id="g4238">
      <path
         style="fill:#000000;fill-opacity:1;fill-rule:evenodd;stroke:#000000;stroke-width:3.28843412;stroke-linecap:butt;stroke-linejoin:miter;stroke-miterlimit:4;stroke-dasharray:none;stroke-opacity:1"
         d="m 383.03572,830.84435 c -3.61901,-3.52552 -5.83445,-6.07618 -8.75,-11.69643 2.15574,-2.74916 0.73902,-2.55582 6.96428,-8.30357 l 0.53571,-3.57143 c 2.74568,-1.03324 3.1756,-0.0863 3.57143,0.22321 l -1.96428,4.86607 -4.15179,6.42858 c 1.41361,1.80807 2.88423,3.58764 3.83928,5.625"
         id="path4240"
         inkscape:connector-curvature="0"
         sodipodi:nodetypes="cccccccc" />
      <path
         style="fill:#000000;fill-opacity:1;fill-rule:evenodd;stroke:#000000;stroke-width:3.28843412;stroke-linecap:butt;stroke-linejoin:miter;stroke-miterlimit:4;stroke-dasharray:none;stroke-opacity:1"
         d="m 384.64286,812.80863 -1.51786,10.80357 -0.0893,7.1875 c 6.36777,1.49206 10.2381,1.04167 15.35715,1.5625 3.75366,-3.06562 7.04853,-7.3547 10.08928,-12.32142 -2.45128,-4.08003 -4.12944,-5.84071 -5.89286,-7.85715 l 0.44644,-3.39285 c -2.58073,-2.61798 -3.6462,-1.36079 -4.375,-1.47322 l 1.25,4.50893 3.92857,7.23214 c -2.30128,2.30279 -2.78383,3.30648 -3.48214,4.46429 l -0.62501,-4.82143 c -0.0231,-1.88883 0.25552,-3.59669 -0.89285,-6.16071"
         id="path4242"
         inkscape:connector-curvature="0"
         sodipodi:nodetypes="ccccccccccccc" />
      <ellipse
         style="color:#000000;clip-rule:nonzero;display:inline;overflow:visible;visibility:visible;opacity:1;isolation:auto;mix-blend-mode:normal;color-interpolation:sRGB;color-interpolation-filters:linearRGB;solid-color:#000000;solid-opacity:1;fill:#000000;fill-opacity:1;fill-rule:evenodd;stroke:#000000;stroke-width:3.28843412;stroke-linecap:butt;stroke-linejoin:round;stroke-miterlimit:4;stroke-dasharray:none;stroke-dashoffset:0;stroke-opacity:1;color-rendering:auto;image-rendering:auto;shape-rendering:auto;text-rendering:auto;enable-background:accumulate"
         id="ellipse4244"
         cx="388.2088"
         cy="785.02863"
         rx="2.3257449"
         ry="5.4281216" />
      <ellipse
         style="color:#000000;clip-rule:nonzero;display:inline;overflow:visible;visibility:visible;opacity:1;isolation:auto;mix-blend-mode:normal;color-interpolation:sRGB;color-interpolation-filters:linearRGB;solid-color:#000000;solid-opacity:1;fill:#000000;fill-opacity:1;fill-rule:evenodd;stroke:#000000;stroke-width:3.28843412;stroke-linecap:butt;stroke-linejoin:round;stroke-miterlimit:4;stroke-dasharray:none;stroke-dashoffset:0;stroke-opacity:1;color-rendering:auto;image-rendering:auto;shape-rendering:auto;text-rendering:auto;enable-background:accumulate"
         id="ellipse4246"
         cx="395.84329"
         cy="785.20337"
         rx="2.3257449"
         ry="5.4281216" />
      <path
         style="fill:#000000;fill-opacity:1;fill-rule:evenodd;stroke:#000000;stroke-width:3.28843412;stroke-linecap:butt;stroke-linejoin:miter;stroke-miterlimit:4;stroke-dasharray:none;stroke-opacity:1"
         d="m 397.41072,789.59435 c 0,0 0.98214,3.83928 1.16071,13.39285 l 0.17857,9.55358 c -1.81285,1.14395 -3.779,2.02511 -7.23214,0.35714 l 1.60714,-9.82143 c 0.18378,-6.98916 0.51559,-7.74248 0.49107,-13.25893 z"
         id="path4248"
         inkscape:connector-curvature="0"
         sodipodi:nodetypes="csccccc" />
      <path
         style="fill:#000000;fill-opacity:1;fill-rule:evenodd;stroke:#000000;stroke-width:3.28843412;stroke-linecap:butt;stroke-linejoin:miter;stroke-miterlimit:4;stroke-dasharray:none;stroke-opacity:1"
         d="m 391.11608,812.85328 -0.31249,-10.22322 -0.44643,-13.21428 -3.39285,0.26785 c -1.50271,9.36117 -0.19229,11.0439 -0.53571,13.03572 l -1.78574,10.35714 c 1.33074,0.55064 3.72494,0.87994 6.47322,-0.22321 z"
         id="path4250"
         inkscape:connector-curvature="0"
         sodipodi:nodetypes="ccccscc" />
      <ellipse
         style="color:#000000;clip-rule:nonzero;display:inline;overflow:visible;visibility:visible;opacity:1;isolation:auto;mix-blend-mode:normal;color-interpolation:sRGB;color-interpolation-filters:linearRGB;solid-color:#000000;solid-opacity:1;fill:#000000;fill-opacity:1;fill-rule:evenodd;stroke:#000000;stroke-width:3.28843412;stroke-linecap:butt;stroke-linejoin:round;stroke-miterlimit:4;stroke-dasharray:none;stroke-dashoffset:0;stroke-opacity:1;color-rendering:auto;image-rendering:auto;shape-rendering:auto;text-rendering:auto;enable-background:accumulate"
         id="ellipse4252"
         cx="391.47318"
         cy="829.99609"
         rx="5.2232141"
         ry="7.7232141" />
    </g>
    <g
       id="g4407"
       transform="matrix(0,-1.0923132,1.0923132,0,-67.626229,1106.6191)"
       style="fill:#3567ed;fill-opacity:1;stroke:#ffffff;stroke-width:1.36590862;stroke-miterlimit:4;stroke-dasharray:none;stroke-opacity:1"
       inkscape:export-xdpi="100.22"
       inkscape:export-ydpi="100.22"
       inkscape:export-filename="/home/sven/projects/coxswain/doc/google-play/feature.png">
      <path
         sodipodi:nodetypes="cccccccc"
         inkscape:connector-curvature="0"
         id="path4386"
         d="m 383.03572,830.84435 c -3.61901,-3.52552 -5.83445,-6.07618 -8.75,-11.69643 2.15574,-2.74916 0.73902,-2.55582 6.96428,-8.30357 l 0.53571,-3.57143 c 2.74568,-1.03324 3.1756,-0.0863 3.57143,0.22321 l -1.96428,4.86607 -4.15179,6.42858 c 1.41361,1.80807 2.88423,3.58764 3.83928,5.625"
         style="fill:#3567ed;fill-opacity:1;fill-rule:evenodd;stroke:#ffffff;stroke-width:1.36590862;stroke-linecap:butt;stroke-linejoin:miter;stroke-miterlimit:4;stroke-dasharray:none;stroke-opacity:1" />
      <path
         sodipodi:nodetypes="ccccccccccccc"
         inkscape:connector-curvature="0"
         id="path4384"
         d="m 384.64286,812.80863 -1.51786,10.80357 -0.0893,7.1875 c 6.36777,1.49206 10.2381,1.04167 15.35715,1.5625 3.75366,-3.06562 7.04853,-7.3547 10.08928,-12.32142 -2.45128,-4.08003 -4.12944,-5.84071 -5.89286,-7.85715 l 0.44644,-3.39285 c -2.58073,-2.61798 -3.6462,-1.36079 -4.375,-1.47322 l 1.25,4.50893 3.92857,7.23214 c -2.30128,2.30279 -2.78383,3.30648 -3.48214,4.46429 l -0.62501,-4.82143 c -0.0231,-1.88883 0.25552,-3.59669 -0.89285,-6.16071"
         style="fill:#3567ed;fill-opacity:1;fill-rule:evenodd;stroke:#ffffff;stroke-width:1.36590862;stroke-linecap:butt;stroke-linejoin:miter;stroke-miterlimit:4;stroke-dasharray:none;stroke-opacity:1" />
      <ellipse
         ry="5.4281216"
         rx="2.3257449"
         cy="785.02863"
         cx="388.2088"
         id="path4390"
         style="color:#000000;clip-rule:nonzero;display:inline;overflow:visible;visibility:visible;opacity:1;isolation:auto;mix-blend-mode:normal;color-interpolation:sRGB;color-interpolation-filters:linearRGB;solid-color:#000000;solid-opacity:1;fill:#3567ed;fill-opacity:1;fill-rule:evenodd;stroke:#ffffff;stroke-width:1.66209209;stroke-linecap:butt;stroke-linejoin:round;stroke-miterlimit:4;stroke-dasharray:none;stroke-dashoffset:0;stroke-opacity:1;color-rendering:auto;image-rendering:auto;shape-rendering:auto;text-rendering:auto;enable-background:accumulate" />
      <ellipse
         ry="5.4281216"
         rx="2.3257449"
         cy="785.20337"
         cx="395.84329"
         id="path4390-6"
         style="color:#000000;clip-rule:nonzero;display:inline;overflow:visible;visibility:visible;opacity:1;isolation:auto;mix-blend-mode:normal;color-interpolation:sRGB;color-interpolation-filters:linearRGB;solid-color:#000000;solid-opacity:1;fill:#3567ed;fill-opacity:1;fill-rule:evenodd;stroke:#ffffff;stroke-width:1.66209209;stroke-linecap:butt;stroke-linejoin:round;stroke-miterlimit:4;stroke-dasharray:none;stroke-dashoffset:0;stroke-opacity:1;color-rendering:auto;image-rendering:auto;shape-rendering:auto;text-rendering:auto;enable-background:accumulate" />
      <path
         sodipodi:nodetypes="csccccc"
         inkscape:connector-curvature="0"
         id="path4380"
         d="m 397.41072,789.59435 c 0,0 0.98214,3.83928 1.16071,13.39285 l 0.17857,9.55358 c -1.81285,1.14395 -3.779,2.02511 -7.23214,0.35714 l 1.60714,-9.82143 c 0.18378,-6.98916 0.51559,-7.74248 0.49107,-13.25893 z"
         style="fill:#3567ed;fill-opacity:1;fill-rule:evenodd;stroke:#ffffff;stroke-width:1.36590862;stroke-linecap:butt;stroke-linejoin:miter;stroke-miterlimit:4;stroke-dasharray:none;stroke-opacity:1" />
      <path
         sodipodi:nodetypes="ccccscc"
         inkscape:connector-curvature="0"
         id="path4382"
         d="m 391.11608,812.85328 -0.31249,-10.22322 -0.44643,-13.21428 -3.39285,0.26785 c -1.50271,9.36117 -0.19229,11.0439 -0.53571,13.03572 l -1.78574,10.35714 c 1.33074,0.55064 3.72494,0.87994 6.47322,-0.22321 z"
         style="fill:#3567ed;fill-opacity:1;fill-rule:evenodd;stroke:#ffffff;stroke-width:1.36590862;stroke-linecap:butt;stroke-linejoin:miter;stroke-miterlimit:4;stroke-dasharray:none;stroke-opacity:1" />
      <ellipse
         ry="7.7232141"
         rx="5.2232141"
         cy="829.99609"
         cx="391.47318"
         id="path4388"
         style="color:#000000;clip-rule:nonzero;display:inline;overflow:visible;visibility:visible;opacity:1;isolation:auto;mix-blend-mode:normal;color-interpolation:sRGB;color-interpolation-filters:linearRGB;solid-color:#000000;solid-opacity:1;fill:#3567ed;fill-opacity:1;fill-rule:evenodd;stroke:#ffffff;stroke-width:1.36590862;stroke-linecap:butt;stroke-linejoin:round;stroke-miterlimit:4;stroke-dasharray:none;stroke-dashoffset:0;stroke-opacity:1;color-rendering:auto;image-rendering:auto;shape-rendering:auto;text-rendering:auto;enable-background:accumulate" />
    </g>
    <g
       id="g4870"
       style="stroke:#000000;stroke-width:2.5999999;stroke-miterlimit:4;stroke-dasharray:none;stroke-opacity:1"
       inkscape:export-xdpi="100.22"
       inkscape:export-ydpi="100.22"
       transform="translate(0.13335736,0.18378575)"
       inkscape:export-filename="/home/sven/projects/coxswain/doc/google-play/feature.png">
      <path
         sodipodi:nodetypes="cc"
         inkscape:connector-curvature="0"
         id="path4800"
         d="m 517.07966,799.88936 18.88673,-47.60775"
         style="fill:none;fill-rule:evenodd;stroke:#000000;stroke-width:2.5999999;stroke-linecap:round;stroke-linejoin:miter;stroke-miterlimit:4;stroke-dasharray:none;stroke-opacity:1" />
      <path
         sodipodi:nodetypes="cc"
         inkscape:connector-curvature="0"
         id="path4806"
         d="m 555.05934,799.88936 18.88673,-47.60775"
         style="fill:none;fill-rule:evenodd;stroke:#000000;stroke-width:2.5999999;stroke-linecap:round;stroke-linejoin:miter;stroke-miterlimit:4;stroke-dasharray:none;stroke-opacity:1" />
      <path
         style="fill:none;fill-rule:evenodd;stroke:#000000;stroke-width:2.5999999;stroke-linecap:round;stroke-linejoin:miter;stroke-miterlimit:4;stroke-dasharray:none;stroke-opacity:1"
         d="M 554.82996,799.88936 535.94323,752.28161"
         id="path4804"
         inkscape:connector-curvature="0"
         sodipodi:nodetypes="cc" />
      <path
         style="fill:none;fill-rule:evenodd;stroke:#000000;stroke-width:2.5999999;stroke-linecap:round;stroke-linejoin:miter;stroke-miterlimit:4;stroke-dasharray:none;stroke-opacity:1"
         d="m 614.34236,799.88936 18.88673,-47.60775"
         id="path4808"
         inkscape:connector-curvature="0"
         sodipodi:nodetypes="cc" />
      <path
         sodipodi:nodetypes="cc"
         inkscape:connector-curvature="0"
         id="path4810"
         d="m 701.50318,799.30077 -0.35841,-45.89485"
         style="fill:none;fill-rule:evenodd;stroke:#000000;stroke-width:2.5999999;stroke-linecap:round;stroke-linejoin:miter;stroke-miterlimit:4;stroke-dasharray:none;stroke-opacity:1" />
      <path
         style="fill:none;fill-rule:evenodd;stroke:#000000;stroke-width:2.5999999;stroke-linecap:round;stroke-linejoin:miter;stroke-miterlimit:4;stroke-dasharray:none;stroke-opacity:1"
         d="m 751.57066,799.88936 18.88673,-47.60775"
         id="path4812"
         inkscape:connector-curvature="0"
         sodipodi:nodetypes="cc" />
      <path
         sodipodi:nodetypes="cc"
         inkscape:connector-curvature="0"
         id="path4814"
         d="m 789.61536,799.88936 18.88673,-47.60775"
         style="fill:none;fill-rule:evenodd;stroke:#000000;stroke-width:2.5999999;stroke-linecap:round;stroke-linejoin:miter;stroke-miterlimit:4;stroke-dasharray:none;stroke-opacity:1" />
      <path
         style="fill:none;fill-rule:evenodd;stroke:#000000;stroke-width:2.5999999;stroke-linecap:round;stroke-linejoin:miter;stroke-miterlimit:4;stroke-dasharray:none;stroke-opacity:1"
         d="m 362.97371,799.88936 32.38165,-47.60775"
         id="path4816"
         inkscape:connector-curvature="0"
         sodipodi:nodetypes="cc" />
      <path
         sodipodi:nodetypes="cc"
         inkscape:connector-curvature="0"
         id="path4818"
         d="M 516.47147,799.88936 497.58474,752.28161"
         style="fill:none;fill-rule:evenodd;stroke:#000000;stroke-width:2.5999999;stroke-linecap:round;stroke-linejoin:miter;stroke-miterlimit:4;stroke-dasharray:none;stroke-opacity:1" />
      <path
         style="color:#000000;clip-rule:nonzero;display:inline;overflow:visible;visibility:visible;opacity:1;isolation:auto;mix-blend-mode:normal;color-interpolation:sRGB;color-interpolation-filters:linearRGB;solid-color:#000000;solid-opacity:1;fill:none;fill-opacity:1;fill-rule:evenodd;stroke:#000000;stroke-width:2.5999999;stroke-linecap:round;stroke-linejoin:round;stroke-miterlimit:4;stroke-dasharray:none;stroke-dashoffset:0;stroke-opacity:1;color-rendering:auto;image-rendering:auto;shape-rendering:auto;text-rendering:auto;enable-background:accumulate"
         d="m 465.71159,764.21694 c 0,-6.22553 -8.17356,-11.27344 -18.72276,-11.27344 -7.75367,0 -14.42883,2.72758 -17.42187,6.64453 -1.07911,1.41222 -1.04834,2.97915 -1.04834,4.62891 0,6.20024 8.1274,11.13751 18.61746,11.17829 m -19.00467,12.42132 c 10e-6,6.85791 8.44296,12.41797 18.85742,12.41797 10.41447,0 18.85743,-5.56006 18.85743,-12.41797 0,-4.26981 -3.27213,-8.0348 -8.25586,-10.26953 -2.98399,-1.33804 -6.58345,-2.12353 -10.45899,-2.14258"
         id="path4826"
         inkscape:connector-curvature="0"
         sodipodi:nodetypes="csssccsssc"
         inkscape:export-xdpi="108.34"
         inkscape:export-ydpi="108.34" />
      <path
         style="color:#000000;clip-rule:nonzero;display:inline;overflow:visible;visibility:visible;opacity:1;isolation:auto;mix-blend-mode:normal;color-interpolation:sRGB;color-interpolation-filters:linearRGB;solid-color:#000000;solid-opacity:1;fill:none;fill-opacity:1;fill-rule:evenodd;stroke:#000000;stroke-width:2.5999999;stroke-linecap:round;stroke-linejoin:round;stroke-miterlimit:4;stroke-dasharray:none;stroke-dashoffset:0;stroke-opacity:1;color-rendering:auto;image-rendering:auto;shape-rendering:auto;text-rendering:auto;enable-background:accumulate"
         d="m 329.30049,776.4693 a 24.221375,24.13209 0 0 1 -24.22138,24.13209 24.221375,24.13209 0 0 1 -24.22137,-24.13209 24.221375,24.13209 0 0 1 24.22137,-24.13209 24.221375,24.13209 0 0 1 24.22138,24.13209 z"
         id="path4837"
         inkscape:connector-curvature="0"
         inkscape:export-xdpi="108.34"
         inkscape:export-ydpi="108.34" />
      <path
         style="color:#000000;clip-rule:nonzero;display:inline;overflow:visible;visibility:visible;opacity:1;isolation:auto;mix-blend-mode:normal;color-interpolation:sRGB;color-interpolation-filters:linearRGB;solid-color:#000000;solid-opacity:1;fill:none;fill-opacity:1;fill-rule:evenodd;stroke:#000000;stroke-width:2.59359765;stroke-linecap:round;stroke-linejoin:round;stroke-miterlimit:4;stroke-dasharray:none;stroke-dashoffset:0;stroke-opacity:1;color-rendering:auto;image-rendering:auto;shape-rendering:auto;text-rendering:auto;enable-background:accumulate"
         d="m 246.75182,793.42526 c -6.87115,7.04508 -17.30433,9.23483 -26.41698,5.54448 -9.11265,-3.69035 -15.10211,-12.53079 -15.16541,-22.38411 -0.0633,-9.85332 5.81208,-18.77038 14.87656,-22.57811 9.06447,-3.80773 19.52493,-1.75291 26.48602,5.20284"
         id="path5035"
         inkscape:connector-curvature="0"
         sodipodi:nodetypes="csssc" />
      <path
         style="fill:none;fill-rule:evenodd;stroke:#000000;stroke-width:2.5999999;stroke-linecap:round;stroke-linejoin:miter;stroke-miterlimit:4;stroke-dasharray:none;stroke-opacity:1"
         d="m 619.20392,788.55334 29.11452,-0.004"
         id="path4808-1"
         inkscape:connector-curvature="0"
         sodipodi:nodetypes="cc" />
      <path
         sodipodi:nodetypes="cc"
         inkscape:connector-curvature="0"
         id="path4278"
         d="m 362.97371,799.88936 32.38165,-47.60775"
         style="fill:none;fill-rule:evenodd;stroke:#000000;stroke-width:2.5999999;stroke-linecap:round;stroke-linejoin:miter;stroke-miterlimit:4;stroke-dasharray:none;stroke-opacity:1" />
    </g>
    <use
       x="0"
       y="0"
       xlink:href="#g4890"
       id="use4254"
       transform="matrix(1,0,0,-1,-68,1356.4392)"
       width="100%"
       height="100%" />
    <g
       style="opacity:1;stroke:#000000;stroke-opacity:1"
       transform="matrix(0,1,1,0,-58.486214,285.48439)"
       id="g4890"
       inkscape:export-xdpi="100.22"
       inkscape:export-ydpi="100.22"
       inkscape:export-filename="/home/sven/projects/coxswain/doc/google-play/feature.png">
      <path
         style="fill:none;fill-rule:evenodd;stroke:#000000;stroke-width:1px;stroke-linecap:butt;stroke-linejoin:miter;stroke-opacity:1"
         d="m 407.57335,367.20829 34.59292,44.90629"
         id="path4892"
         inkscape:connector-curvature="0"
         sodipodi:nodetypes="cc" />
      <path
         style="fill:none;fill-opacity:1;fill-rule:evenodd;stroke:#000000;stroke-width:1px;stroke-linecap:butt;stroke-linejoin:miter;stroke-opacity:1"
         d="M 407.57335,440.11041 440.73026,414.8159"
         id="path4894"
         inkscape:connector-curvature="0"
         sodipodi:nodetypes="cc" />
      <ellipse
         style="color:#000000;clip-rule:nonzero;display:inline;overflow:visible;visibility:visible;opacity:1;isolation:auto;mix-blend-mode:normal;color-interpolation:sRGB;color-interpolation-filters:linearRGB;solid-color:#000000;solid-opacity:1;fill:#ffffff;fill-opacity:1;fill-rule:evenodd;stroke:#000000;stroke-width:1.10000002;stroke-linecap:butt;stroke-linejoin:round;stroke-miterlimit:4;stroke-dasharray:none;stroke-dashoffset:0;stroke-opacity:1;color-rendering:auto;image-rendering:auto;shape-rendering:auto;text-rendering:auto;enable-background:accumulate"
         id="ellipse4896"
         cx="389.66635"
         cy="419.56479"
         rx="2.3991122"
         ry="6.6291261" />
      <ellipse
         style="color:#000000;clip-rule:nonzero;display:inline;overflow:visible;visibility:visible;opacity:1;isolation:auto;mix-blend-mode:normal;color-interpolation:sRGB;color-interpolation-filters:linearRGB;solid-color:#000000;solid-opacity:1;fill:#ffffff;fill-opacity:1;fill-rule:evenodd;stroke:#000000;stroke-width:1.10000002;stroke-linecap:butt;stroke-linejoin:round;stroke-miterlimit:4;stroke-dasharray:none;stroke-dashoffset:0;stroke-opacity:1;color-rendering:auto;image-rendering:auto;shape-rendering:auto;text-rendering:auto;enable-background:accumulate"
         id="ellipse4898"
         cx="397.87384"
         cy="418.1127"
         rx="2.3991122"
         ry="6.6291261" />
      <path
         style="opacity:1;fill:#ffffff;fill-opacity:1;fill-rule:evenodd;stroke:#000000;stroke-width:1px;stroke-linecap:butt;stroke-linejoin:miter;stroke-opacity:1"
         d="m 400.95905,385.30066 c -5.10997,0.57699 -10.30196,0.95369 -16.71875,-1.73633 0.0386,2.06668 0.0897,4.16418 0.17774,6.41015 l 0.88281,9.84766 3.03125,13.76368 c 3.33761,1.19769 1.65592,0.2481 2.9043,0.25195 0.36734,-4.80842 0.13617,-9.4167 -0.50586,-13.88868 l 2.27345,-11.74414 1.89257,10.35547 c -0.12582,6.81672 0.64117,10.06327 1.13672,14.39454 1.09433,0.33672 2.02169,0.33672 2.7793,0 l 0.63086,-14.26954 z m -16.71875,-1.73633 c -0.0325,-1.73763 -1.60028,-14.0645 -1.38248,-18.25531 1.8845,-4.49961 16.04252,-3.42237 17.90743,-2.84509 l 0.0664,22.83692 c -9.06556,1.90493 -16.61712,-1.74737 -16.59132,-1.73657 z"
         id="path4213-9"
         inkscape:connector-curvature="0"
         sodipodi:nodetypes="ccccccccccccccccccc" />
      <path
         style="fill:none;fill-rule:evenodd;stroke:#000000;stroke-width:1px;stroke-linecap:butt;stroke-linejoin:miter;stroke-opacity:1"
         d="m 430.77531,408.47946 c 7.89837,0.86258 19.24888,6.69622 24.13782,11.97073 -9.82326,-1.86325 -16.91186,-6.77375 -24.13782,-11.97073 z"
         id="path4902"
         inkscape:connector-curvature="0"
         sodipodi:nodetypes="ccc" />
      <path
         style="fill:#dcdcdc;fill-opacity:1;fill-rule:evenodd;stroke:#000000;stroke-width:2.79999995;stroke-linecap:butt;stroke-linejoin:miter;stroke-miterlimit:4;stroke-dasharray:none;stroke-opacity:1"
         d="m 382.50779,384.25282 32.40097,16.16874 119.9199,59.84247 c 1.40243,3.63566 2.68428,7.22682 6.56022,11.77526 l 18.81401,9.95749 c 1.87629,-3.22631 3.85469,-6.07108 5.03911,-11.8825 l -18.53777,-8.22727 c -4.25132,-1.05766 -8.03825,-1.36838 -11.66451,-1.42068"
         id="path4904"
         inkscape:connector-curvature="0"
         sodipodi:nodetypes="cccccccc" />
      <path
         style="fill:#ffffff;fill-opacity:1;fill-rule:evenodd;stroke:#000000;stroke-width:1px;stroke-linecap:butt;stroke-linejoin:miter;stroke-opacity:1"
         d="m 382.72154,365.3322 c 1.87929,0.97662 2.21171,3.5001 2.43806,6.12965 -1.61443,1.03109 -3.47585,1.55571 -6.42443,2.92033 l 5.38126,7.58485 1.94081,0.73294 c 0.22592,3.96162 -0.2446,4.78927 -0.67145,5.81344 l -3.94804,-1.90202 -0.34789,-3.27024 c -2.72947,-3.62625 -5.92867,-4.50355 -8.00471,-9.76336 1.50193,-3.33862 7.00757,-6.10904 10.61654,-9.44766 5.24717,-3.35125 14.24535,-2.04842 17.392,-1.57584 3.90354,4.79537 6.63769,9.39408 9.53332,16.54124 -3.02567,3.63837 -5.10644,7.43563 -9.47018,11.74303 l -0.63134,4.67195 c -1.32072,-0.40495 -3.68729,-1.02676 -4.67196,-1.76777 l 9.21764,-15.15228 -5.80838,-7.95496 c -1.46781,-2.43045 -0.81519,-8.29613 1.83091,-8.01808"
         id="path4906"
         inkscape:connector-curvature="0"
         sodipodi:nodetypes="cccccccccccccccccc" />
      <ellipse
         style="color:#000000;clip-rule:nonzero;display:inline;overflow:visible;visibility:visible;opacity:1;isolation:auto;mix-blend-mode:normal;color-interpolation:sRGB;color-interpolation-filters:linearRGB;solid-color:#000000;solid-opacity:1;fill:#ffffff;fill-opacity:1;fill-rule:evenodd;stroke:#000000;stroke-width:1.10000002;stroke-linecap:butt;stroke-linejoin:round;stroke-miterlimit:4;stroke-dasharray:none;stroke-dashoffset:0;stroke-opacity:1;color-rendering:auto;image-rendering:auto;shape-rendering:auto;text-rendering:auto;enable-background:accumulate"
         id="ellipse4908"
         cx="391.98251"
         cy="369.26685"
         rx="5.0507627"
         ry="7.5761442" />
    </g>
    <g
       id="g4248"
       transform="matrix(0,-1,1,0,9.8925932,1071.1175)"
       style="opacity:1;stroke:#000000;stroke-opacity:1"
       inkscape:export-xdpi="100.22"
       inkscape:export-ydpi="100.22"
       inkscape:export-filename="/home/sven/projects/coxswain/doc/google-play/feature.png">
      <path
         sodipodi:nodetypes="cc"
         inkscape:connector-curvature="0"
         id="path4205"
         d="m 407.57335,367.20829 35.03935,40.17415"
         style="fill:none;fill-rule:evenodd;stroke:#000000;stroke-width:1px;stroke-linecap:butt;stroke-linejoin:miter;stroke-opacity:1" />
      <path
         sodipodi:nodetypes="cc"
         inkscape:connector-curvature="0"
         id="path4207"
         d="m 407.57335,440.11041 33.69262,-29.22308"
         style="fill:none;fill-opacity:1;fill-rule:evenodd;stroke:#000000;stroke-width:1px;stroke-linecap:butt;stroke-linejoin:miter;stroke-opacity:1" />
      <ellipse
         ry="6.6291261"
         rx="2.3991122"
         cy="419.56479"
         cx="389.66635"
         id="path4217"
         style="color:#000000;clip-rule:nonzero;display:inline;overflow:visible;visibility:visible;opacity:1;isolation:auto;mix-blend-mode:normal;color-interpolation:sRGB;color-interpolation-filters:linearRGB;solid-color:#000000;solid-opacity:1;fill:#ffffff;fill-opacity:1;fill-rule:evenodd;stroke:#000000;stroke-width:1.10000002;stroke-linecap:butt;stroke-linejoin:round;stroke-miterlimit:4;stroke-dasharray:none;stroke-dashoffset:0;stroke-opacity:1;color-rendering:auto;image-rendering:auto;shape-rendering:auto;text-rendering:auto;enable-background:accumulate" />
      <ellipse
         ry="6.6291261"
         rx="2.3991122"
         cy="418.1127"
         cx="397.87384"
         id="path4217-3"
         style="color:#000000;clip-rule:nonzero;display:inline;overflow:visible;visibility:visible;opacity:1;isolation:auto;mix-blend-mode:normal;color-interpolation:sRGB;color-interpolation-filters:linearRGB;solid-color:#000000;solid-opacity:1;fill:#ffffff;fill-opacity:1;fill-rule:evenodd;stroke:#000000;stroke-width:1.10000002;stroke-linecap:butt;stroke-linejoin:round;stroke-miterlimit:4;stroke-dasharray:none;stroke-dashoffset:0;stroke-opacity:1;color-rendering:auto;image-rendering:auto;shape-rendering:auto;text-rendering:auto;enable-background:accumulate" />
      <path
         style="fill:#ffffff;fill-opacity:1;fill-rule:evenodd;stroke:#000000;stroke-width:1px;stroke-linecap:butt;stroke-linejoin:miter;stroke-opacity:1"
         d="m 395.04102,361.63477 c 0.57699,5.10998 0.95369,10.30196 -1.73633,16.71875 2.06668,-0.0386 4.16418,-0.0897 6.41015,-0.17774 l 9.84766,-0.88281 13.76367,-3.03125 c 1.19769,-3.3376 0.2481,-1.65592 0.25195,-2.9043 -4.80842,-0.36733 -9.4167,-0.13617 -13.88867,0.50586 l -11.74414,-2.27344 10.35547,-1.89257 c 6.81671,0.12582 10.06326,-0.64117 14.39453,-1.13672 0.33672,-1.09433 0.33672,-2.02169 0,-2.7793 l -14.26953,-0.63086 z m -1.73633,16.71875 c -1.73763,0.0325 -14.0645,1.60028 -18.25531,1.38248 -4.49961,-1.8845 -3.42237,-16.04251 -2.84509,-17.90743 l 22.83692,-0.0664 c 1.90493,9.06557 -1.74737,16.61712 -1.73657,16.59132 z"
         transform="matrix(0,1,-1,0,762.66598,-9.7592358)"
         id="path4213"
         inkscape:connector-curvature="0"
         sodipodi:nodetypes="ccccccccccccccccccc" />
      <path
         sodipodi:nodetypes="ccc"
         inkscape:connector-curvature="0"
         id="path4234"
         d="m 428.75,404.32649 c 7.9435,0.1709 19.75925,4.99308 25.08929,9.82142 -9.94827,-1 -17.43788,-5.274 -25.08929,-9.82142 z"
         style="fill:none;fill-rule:evenodd;stroke:#000000;stroke-width:1px;stroke-linecap:butt;stroke-linejoin:miter;stroke-opacity:1" />
      <path
         sodipodi:nodetypes="cccccccc"
         inkscape:connector-curvature="0"
         id="path4203"
         d="m 378.55467,384.39883 33.68687,13.28328 124.67918,49.16304 c 1.71396,3.4996 3.30393,6.96537 7.56154,11.15869 l 19.61027,8.27985 c 1.58796,-3.37756 3.31089,-6.38393 3.98431,-12.27647 l -19.18429,-6.58029 c -4.32732,-0.68311 -8.12692,-0.66259 -11.74394,-0.39864"
         style="fill:#dcdcdc;fill-opacity:1;fill-rule:evenodd;stroke:#000000;stroke-width:2.79999995;stroke-linecap:butt;stroke-linejoin:miter;stroke-miterlimit:4;stroke-dasharray:none;stroke-opacity:1" />
      <path
         sodipodi:nodetypes="cccccccccccccccccc"
         inkscape:connector-curvature="0"
         id="path4211"
         d="m 382.72154,365.3322 c 1.87929,0.97662 2.21171,3.5001 2.43806,6.12965 -1.61443,1.03109 -3.47585,2.12392 -6.42443,3.48854 l 5.55983,8.71307 1.94081,0.73294 c 0.22592,3.96162 -0.2446,4.78927 -0.67145,5.81344 l -3.94804,-1.90202 -0.34789,-3.27024 c -2.72947,-3.62625 -6.10724,-5.63177 -8.18328,-10.89158 1.50193,-3.33862 7.00757,-6.67725 10.61654,-10.01587 5.24717,-3.35125 14.24535,-2.04842 17.392,-1.57584 3.90354,4.79537 6.63769,9.39408 9.53332,16.54124 -3.02567,3.63837 -5.02984,7.43563 -9.39358,11.74303 l -0.63134,4.67195 c -1.32072,-0.40495 -3.40675,-1.02676 -4.39142,-1.76777 l 8.8605,-15.15228 -5.80838,-7.95496 c -1.46781,-2.43045 -0.81519,-8.29613 1.83091,-8.01808"
         style="fill:#ffffff;fill-opacity:1;fill-rule:evenodd;stroke:#000000;stroke-width:1px;stroke-linecap:butt;stroke-linejoin:miter;stroke-opacity:1" />
      <ellipse
         ry="7.5761442"
         rx="5.0507627"
         cy="371.26685"
         cx="392.33966"
         id="path4215"
         style="color:#000000;clip-rule:nonzero;display:inline;overflow:visible;visibility:visible;opacity:1;isolation:auto;mix-blend-mode:normal;color-interpolation:sRGB;color-interpolation-filters:linearRGB;solid-color:#000000;solid-opacity:1;fill:#ffffff;fill-opacity:1;fill-rule:evenodd;stroke:#000000;stroke-width:1.10000002;stroke-linecap:butt;stroke-linejoin:round;stroke-miterlimit:4;stroke-dasharray:none;stroke-dashoffset:0;stroke-opacity:1;color-rendering:auto;image-rendering:auto;shape-rendering:auto;text-rendering:auto;enable-background:accumulate" />
    </g>
    <use
       x="0"
       y="0"
       xlink:href="#g4248"
       id="use4297"
       transform="matrix(1,0,0,-1,68.346482,1356.5447)"
       width="100%"
       height="100%"
       style="opacity:1;stroke:#000000;stroke-opacity:1"
       inkscape:export-xdpi="100.22"
       inkscape:export-ydpi="100.22"
       inkscape:export-filename="/home/sven/projects/coxswain/doc/google-play/feature.png" />
    <g
       inkscape:export-filename="/home/sven/projects/coxswain/doc/google-play/feature.png"
       inkscape:export-ydpi="100.22"
       inkscape:export-xdpi="100.22"
       style="opacity:1;stroke:#000000;stroke-opacity:1"
       transform="matrix(0,-1,1,0,146.58543,1071.1175)"
       id="use4307">
      <path
         style="fill:none;fill-rule:evenodd;stroke:#000000;stroke-width:1px;stroke-linecap:butt;stroke-linejoin:miter;stroke-opacity:1"
         d="m 407.57335,367.20829 35.03935,40.17415"
         id="path4258"
         inkscape:connector-curvature="0"
         sodipodi:nodetypes="cc" />
      <path
         style="fill:none;fill-opacity:1;fill-rule:evenodd;stroke:#000000;stroke-width:1px;stroke-linecap:butt;stroke-linejoin:miter;stroke-opacity:1"
         d="m 407.57335,440.11041 33.69262,-29.22308"
         id="path4260"
         inkscape:connector-curvature="0"
         sodipodi:nodetypes="cc" />
      <ellipse
         style="color:#000000;clip-rule:nonzero;display:inline;overflow:visible;visibility:visible;opacity:1;isolation:auto;mix-blend-mode:normal;color-interpolation:sRGB;color-interpolation-filters:linearRGB;solid-color:#000000;solid-opacity:1;fill:#ffffff;fill-opacity:1;fill-rule:evenodd;stroke:#000000;stroke-width:1.10000002;stroke-linecap:butt;stroke-linejoin:round;stroke-miterlimit:4;stroke-dasharray:none;stroke-dashoffset:0;stroke-opacity:1;color-rendering:auto;image-rendering:auto;shape-rendering:auto;text-rendering:auto;enable-background:accumulate"
         id="ellipse4262"
         cx="389.66635"
         cy="419.56479"
         rx="2.3991122"
         ry="6.6291261" />
      <ellipse
         style="color:#000000;clip-rule:nonzero;display:inline;overflow:visible;visibility:visible;opacity:1;isolation:auto;mix-blend-mode:normal;color-interpolation:sRGB;color-interpolation-filters:linearRGB;solid-color:#000000;solid-opacity:1;fill:#ffffff;fill-opacity:1;fill-rule:evenodd;stroke:#000000;stroke-width:1.10000002;stroke-linecap:butt;stroke-linejoin:round;stroke-miterlimit:4;stroke-dasharray:none;stroke-dashoffset:0;stroke-opacity:1;color-rendering:auto;image-rendering:auto;shape-rendering:auto;text-rendering:auto;enable-background:accumulate"
         id="ellipse4264"
         cx="397.87384"
         cy="418.1127"
         rx="2.3991122"
         ry="6.6291261" />
      <path
         sodipodi:nodetypes="cccccccccccccccccc"
         inkscape:connector-curvature="0"
         id="path4266"
         transform="matrix(0,1,-1,0,762.66598,-9.7592358)"
         d="m 395.04102,361.63477 c 0.57699,5.10998 0.95369,10.30196 -1.73633,16.71875 16.82544,-0.65805 11.44803,-1.19606 15.90067,-1.23912 4.58789,-0.53773 9.53292,-1.13457 14.12081,-2.85268 1.19769,-3.3376 0.2481,-1.65592 0.25195,-2.9043 -4.80842,-0.36733 -9.4167,-0.13617 -13.88867,0.50586 l -11.11914,-1.55915 9.73047,-2.60686 c 6.81671,0.12582 10.06326,-0.64117 14.39453,-1.13672 0.33672,-1.09433 0.33672,-2.02169 0,-2.7793 -4.20518,-0.43082 -8.87519,-0.67571 -14.26953,-0.63086 z m -1.73633,16.71875 c -1.73763,0.0325 -14.0645,1.60028 -18.25531,1.38248 -4.49961,-1.8845 -3.42237,-16.04251 -2.84509,-17.90743 l 22.83692,-0.0664 c 1.90493,9.06557 -1.74737,16.61712 -1.73657,16.59132 z"
         style="fill:#ffffff;fill-opacity:1;fill-rule:evenodd;stroke:#000000;stroke-width:1px;stroke-linecap:butt;stroke-linejoin:miter;stroke-opacity:1" />
      <path
         style="fill:none;fill-rule:evenodd;stroke:#000000;stroke-width:1px;stroke-linecap:butt;stroke-linejoin:miter;stroke-opacity:1"
         d="m 428.75,404.32649 c 7.9435,0.1709 19.75925,4.99308 25.08929,9.82142 -9.94827,-1 -17.43788,-5.274 -25.08929,-9.82142 z"
         id="path4268"
         inkscape:connector-curvature="0"
         sodipodi:nodetypes="ccc" />
      <path
         style="fill:#dcdcdc;fill-opacity:1;fill-rule:evenodd;stroke:#000000;stroke-width:2.79999995;stroke-linecap:butt;stroke-linejoin:miter;stroke-miterlimit:4;stroke-dasharray:none;stroke-opacity:1"
         d="m 378.55467,384.39883 33.68687,13.28328 124.67918,49.16304 c 1.71396,3.4996 3.30393,6.96537 7.56154,11.15869 l 19.61027,8.27985 c 1.58796,-3.37756 3.31089,-6.38393 3.98431,-12.27647 l -19.18429,-6.58029 c -4.32732,-0.68311 -8.12692,-0.66259 -11.74394,-0.39864"
         id="path4270"
         inkscape:connector-curvature="0"
         sodipodi:nodetypes="cccccccc" />
      <path
         style="fill:#ffffff;fill-opacity:1;fill-rule:evenodd;stroke:#000000;stroke-width:1px;stroke-linecap:butt;stroke-linejoin:miter;stroke-opacity:1"
         d="m 382.72154,365.3322 c 1.87929,0.97662 2.21171,3.5001 2.43806,6.12965 -1.61443,1.03109 -3.47585,2.12392 -6.42443,3.48854 l 5.55983,8.71307 1.94081,0.73294 c 0.22592,3.96162 -0.2446,4.78927 -0.67145,5.81344 l -3.94804,-1.90202 -0.34789,-3.27024 c -2.72947,-3.62625 -6.10724,-5.63177 -8.18328,-10.89158 1.50193,-3.33862 7.00757,-6.67725 10.61654,-10.01587 5.24717,-3.35125 14.24535,-2.04842 17.392,-1.57584 3.90354,4.79537 6.63769,9.39408 9.53332,16.54124 -3.02567,3.63837 -5.42211,7.43563 -9.78585,11.74303 l -0.63134,4.67195 c -1.32072,-0.40495 -3.37162,-1.02676 -4.35629,-1.76777 l 9.21764,-15.15228 -5.80838,-7.95496 c -1.46781,-2.43045 -0.81519,-8.29613 1.83091,-8.01808"
         id="path4272"
         inkscape:connector-curvature="0"
         sodipodi:nodetypes="cccccccccccccccccc" />
      <ellipse
         style="color:#000000;clip-rule:nonzero;display:inline;overflow:visible;visibility:visible;opacity:1;isolation:auto;mix-blend-mode:normal;color-interpolation:sRGB;color-interpolation-filters:linearRGB;solid-color:#000000;solid-opacity:1;fill:#ffffff;fill-opacity:1;fill-rule:evenodd;stroke:#000000;stroke-width:1.10000002;stroke-linecap:butt;stroke-linejoin:round;stroke-miterlimit:4;stroke-dasharray:none;stroke-dashoffset:0;stroke-opacity:1;color-rendering:auto;image-rendering:auto;shape-rendering:auto;text-rendering:auto;enable-background:accumulate"
         id="ellipse4274"
         cx="392.33966"
         cy="371.26685"
         rx="5.0507627"
         ry="7.5761442" />
    </g>
    <use
       x="0"
       y="0"
       xlink:href="#use4297"
       id="use4299"
       transform="translate(136.69278,2.9483538e-6)"
       width="100%"
       height="100%"
       style="opacity:1;stroke:#000000;stroke-opacity:1"
       inkscape:export-xdpi="100.22"
       inkscape:export-ydpi="100.22"
       inkscape:export-filename="/home/sven/projects/coxswain/doc/google-play/feature.png" />
    <use
       x="0"
       y="0"
       xlink:href="#use4307"
       id="use4310"
       transform="translate(136.69449,0)"
       width="100%"
       height="100%" />
    <use
       x="0"
       y="0"
       xlink:href="#use4299"
       id="use4282"
       transform="translate(136.86357,0)"
       width="100%"
       height="100%" />
  </g>
</svg>
