<?xml version="1.0" encoding="UTF-8" standalone="no"?>
<svg
   xmlns:dc="http://purl.org/dc/elements/1.1/"
   xmlns:cc="http://creativecommons.org/ns#"
   xmlns:rdf="http://www.w3.org/1999/02/22-rdf-syntax-ns#"
   xmlns:svg="http://www.w3.org/2000/svg"
   xmlns="http://www.w3.org/2000/svg"
   xmlns:sodipodi="http://sodipodi.sourceforge.net/DTD/sodipodi-0.dtd"
   xmlns:inkscape="http://www.inkscape.org/namespaces/inkscape"
   height="48"
   viewBox="0 0 24 24"
   width="48"
   id="svg2"
   version="1.1"
   inkscape:version="0.91 r13725"
   sodipodi:docname="logo.svg"
   inkscape:export-filename="/home/sven/projects/coxswain/app/src/main/res/mipmap-xxhdpi/ic_launcher.png"
   inkscape:export-xdpi="270"
   inkscape:export-ydpi="270"
   fill="#000000">
  <metadata
     id="metadata12">
    <rdf:RDF>
      <cc:Work
         rdf:about="">
        <dc:format>image/svg+xml</dc:format>
        <dc:type
           rdf:resource="http://purl.org/dc/dcmitype/StillImage" />
        <dc:title />
      </cc:Work>
    </rdf:RDF>
  </metadata>
  <defs
     id="defs10" />
  <sodipodi:namedview
     pagecolor="#daddea"
     bordercolor="#666666"
     borderopacity="1"
     objecttolerance="10"
     gridtolerance="10"
     guidetolerance="10"
     inkscape:pageopacity="0"
     inkscape:pageshadow="2"
     inkscape:window-width="1920"
     inkscape:window-height="1014"
     id="namedview8"
     showgrid="false"
     showguides="true"
     inkscape:guide-bbox="true"
     inkscape:zoom="11.313708"
     inkscape:cx="9.7401119"
     inkscape:cy="16.017825"
     inkscape:window-x="0"
     inkscape:window-y="27"
     inkscape:window-maximized="1"
     inkscape:current-layer="svg2"
     units="mm">
    <sodipodi:guide
       position="13.398305,15.991525"
       orientation="0,1"
       id="guide4140" />
    <sodipodi:guide
       position="11.992188,21.121094"
       orientation="1,0"
       id="guide4142" />
  </sodipodi:namedview>
  <g
     id="g4274"
     style="stroke:#ffffff;stroke-opacity:1;stroke-width:3.2;stroke-miterlimit:4;stroke-dasharray:none;stroke-linejoin:round">
    <path
       style="fill:#3567ed;fill-opacity:1;stroke-linejoin:round;stroke:#ffffff;stroke-opacity:1;stroke-width:6.4;stroke-miterlimit:4;stroke-dasharray:none"
       d="M 32 27.359375 C 29.556572 29.071777 26.772186 29.928187 23.988281 29.925781 L 23.988281 33.955078 C 26.732184 33.956918 29.47641 33.311369 32 32.019531 C 34.52 33.319531 37.24 34 40 34 L 42.960938 33.978516 L 44.84375 29.984375 L 40 30 C 37.220014 30.009 34.44 29.059375 32 27.359375 z "
       transform="scale(0.5,0.5)"
       id="path4276" />
    <path
       style="fill:#3567ed;fill-opacity:1;stroke-linejoin:round;stroke:#ffffff;stroke-opacity:1;stroke-width:6.4;stroke-miterlimit:4;stroke-dasharray:none"
       clip-path="none"
       d="M 23.992188 6.0195312 L 23.988281 6.0214844 L 23.988281 26 C 23.992229 26.000005 23.996051 26 24 26 C 27.2 26 30.04 23.70875 32 21.46875 C 33.895712 23.200564 36.197349 25.595253 38.787109 25.984375 L 43.880859 14.640625 C 44.040859 14.120625 43.999766 13.560078 43.759766 13.080078 C 43.519766 12.600078 43.080547 12.240078 42.560547 12.080078 L 23.992188 6.0195312 z "
       transform="scale(0.5,0.5)"
       id="path4278" />
    <path
       style="fill:#3567ed;fill-opacity:1;stroke-linejoin:round;stroke:#ffffff;stroke-opacity:1;stroke-width:6.4;stroke-miterlimit:4;stroke-dasharray:none"
       d="m 31.976562,36.730469 c -2.436565,0.853796 -5.212194,1.172626 -7.988281,1.173828 l 0,4.013672 c 2.73609,-9.2e-4 5.471878,-0.213343 7.988281,-0.857422 2.520001,0.65 5.240001,0.880859 8,0.880859 l 1.966797,-4 -1.966797,0 c -2.78,3.4e-5 -5.56,-0.360937 -8,-1.210937 z"
       transform="scale(0.5,0.5)"
       id="path4280"
       inkscape:connector-curvature="0"
       sodipodi:nodetypes="cccccccc" />
    <path
       id="path4282"
       d="m 7.9882803,13.679688 c 1.221714,0.856201 2.6138707,1.284406 4.0058237,1.283203 l 0,2.014648 c -1.371952,9.2e-4 -2.7440287,-0.321855 -4.0058237,-0.967774 -1.26,0.65 -2.62,0.990235 -3.999999,0.990235 L 2.5078123,16.989258 1.5664063,14.992188 3.9882813,15 c 1.389993,0.0045 2.78,-0.470312 3.999999,-1.320312 z"
       style="fill:#3567ed;fill-opacity:1;stroke-linejoin:round;stroke:#ffffff;stroke-opacity:1;stroke-width:3.2;stroke-miterlimit:4;stroke-dasharray:none"
       inkscape:connector-curvature="0" />
    <path
       id="path4284"
       d="m 11.99215,3.0097656 0.002,9.766e-4 0,9.9892578 c -0.002,3e-6 -0.0039,0 -0.0059,0 -1.599988,0 -3.0199637,-1.145625 -3.9999637,-2.265625 -0.947856,0.865907 -2.098674,2.063252 -3.393554,2.257813 L 2.0478513,7.3203125 c -0.08,-0.26 -0.05945,-0.5402735 0.06055,-0.7802735 0.12,-0.24 0.339609,-0.42 0.599609,-0.5 L 11.992153,3.0097656 Z"
       clip-path="none"
       style="fill:#3567ed;fill-opacity:1;stroke-linejoin:round;stroke:#ffffff;stroke-opacity:1;stroke-width:3.2;stroke-miterlimit:4;stroke-dasharray:none"
       inkscape:connector-curvature="0" />
    <path
       id="path4286"
       d="m 7.9999993,18.365234 c 1.218283,0.426898 2.6060607,0.586313 3.9941047,0.586914 l 0,2.006836 c -1.368045,-4.6e-4 -2.7359027,-0.106672 -3.9941047,-0.428711 -1.26,0.325 -2.62,0.44043 -3.999999,0.44043 l -0.983399,-2 0.983399,0 c 1.39,1.7e-5 2.779999,-0.180469 3.999999,-0.605469 z"
       style="fill:#3567ed;fill-opacity:1;stroke-linejoin:round;stroke:#ffffff;stroke-opacity:1;stroke-width:3.2;stroke-miterlimit:4;stroke-dasharray:none"
       inkscape:connector-curvature="0"
       sodipodi:nodetypes="cccccccc" />
  </g>
  <path
     inkscape:connector-curvature="0"
     style="fill:none;fill-opacity:1;stroke-linejoin:round"
     d="M 0,0 24,0 24,24 0,24 Z"
     id="path4" />
  <g
     id="g4266"
     style="stroke:none">
    <path
       id="path4146"
       transform="scale(0.5,0.5)"
       d="M 32 27.359375 C 29.556572 29.071777 26.772186 29.928187 23.988281 29.925781 L 23.988281 33.955078 C 26.732184 33.956918 29.47641 33.311369 32 32.019531 C 34.52 33.319531 37.24 34 40 34 L 42.960938 33.978516 L 44.84375 29.984375 L 40 30 C 37.220014 30.009 34.44 29.059375 32 27.359375 z "
       style="fill:#3567ed;fill-opacity:1;stroke-linejoin:round;stroke:none" />
    <path
       id="path6"
       transform="scale(0.5,0.5)"
       d="M 23.992188 6.0195312 L 23.988281 6.0214844 L 23.988281 26 C 23.992229 26.000005 23.996051 26 24 26 C 27.2 26 30.04 23.70875 32 21.46875 C 33.895712 23.200564 36.197349 25.595253 38.787109 25.984375 L 43.880859 14.640625 C 44.040859 14.120625 43.999766 13.560078 43.759766 13.080078 C 43.519766 12.600078 43.080547 12.240078 42.560547 12.080078 L 23.992188 6.0195312 z "
       clip-path="none"
       style="fill:#3567ed;fill-opacity:1;stroke-linejoin:round;stroke:none" />
    <path
       sodipodi:nodetypes="cccccccc"
       inkscape:connector-curvature="0"
       id="path4146-4"
       transform="scale(0.5,0.5)"
       d="m 31.976562,36.730469 c -2.436565,0.853796 -5.212194,1.172626 -7.988281,1.173828 l 0,4.013672 c 2.73609,-9.2e-4 5.471878,-0.213343 7.988281,-0.857422 2.520001,0.65 5.240001,0.880859 8,0.880859 l 1.966797,-4 -1.966797,0 c -2.78,3.4e-5 -5.56,-0.360937 -8,-1.210937 z"
       style="fill:#3567ed;fill-opacity:1;stroke-linejoin:round;stroke:none" />
    <path
       inkscape:connector-curvature="0"
       style="fill:#3567ed;fill-opacity:1;stroke-linejoin:round;stroke:none"
       d="m 7.9882803,13.679688 c 1.221714,0.856201 2.6138707,1.284406 4.0058237,1.283203 l 0,2.014648 c -1.371952,9.2e-4 -2.7440287,-0.321855 -4.0058237,-0.967774 -1.26,0.65 -2.62,0.990235 -3.999999,0.990235 L 2.5078123,16.989258 1.5664063,14.992188 3.9882813,15 c 1.389993,0.0045 2.78,-0.470312 3.999999,-1.320312 z"
       id="path4260" />
    <path
       inkscape:connector-curvature="0"
       style="fill:#3567ed;fill-opacity:1;stroke-linejoin:round;stroke:none"
       clip-path="none"
       d="m 11.99215,3.0097656 0.002,9.766e-4 0,9.9892578 c -0.002,3e-6 -0.0039,0 -0.0059,0 -1.599988,0 -3.0199637,-1.145625 -3.9999637,-2.265625 -0.947856,0.865907 -2.098674,2.063252 -3.393554,2.257813 L 2.0478513,7.3203125 c -0.08,-0.26 -0.05945,-0.5402735 0.06055,-0.7802735 0.12,-0.24 0.339609,-0.42 0.599609,-0.5 L 11.992153,3.0097656 Z"
       id="path4262" />
    <path
       sodipodi:nodetypes="cccccccc"
       inkscape:connector-curvature="0"
       style="fill:#3567ed;fill-opacity:1;stroke-linejoin:round;stroke:none"
       d="m 7.9999993,18.365234 c 1.218283,0.426898 2.6060607,0.586313 3.9941047,0.586914 l 0,2.006836 c -1.368045,-4.6e-4 -2.7359027,-0.106672 -3.9941047,-0.428711 -1.26,0.325 -2.62,0.44043 -3.999999,0.44043 l -0.983399,-2 0.983399,0 c 1.39,1.7e-5 2.779999,-0.180469 3.999999,-0.605469 z"
       id="path4264" />
  </g>
</svg>
